HIERARCHY
ROOT Hips
{
  OFFSET 265.287 66.7526 -254.649
  CHANNELS 6 Xposition Yposition Zposition Zrotation Xrotation Yrotation
  JOINT LeftUpLeg
  {
    OFFSET 8.64259 1.95398 -2.38835
    CHANNELS 3 Zrotation Xrotation Yrotation
    JOINT LeftLeg
    {
      OFFSET 43.7702 0 0
      CHANNELS 3 Zrotation Xrotation Yrotation
      JOINT LeftFoot
      {
        OFFSET 40.6238 0 0
        CHANNELS 3 Zrotation Xrotation Yrotation
        JOINT LeftToeBase
        {
          OFFSET 12.7242 0 0
          CHANNELS 3 Zrotation Xrotation Yrotation
          End Site
          {
            OFFSET 0 0 0
          }
        }
      }
    }
  }
  JOINT RightUpLeg
  {
    OFFSET -8.2249 1.95398 -2.59336
    CHANNELS 3 Zrotation Xrotation Yrotation
    JOINT RightLeg
    {
      OFFSET 43.5653 0 0
      CHANNELS 3 Zrotation Xrotation Yrotation
      JOINT RightFoot
      {
        OFFSET 40.6238 0 0
        CHANNELS 3 Zrotation Xrotation Yrotation
        JOINT RightToeBase
        {
          OFFSET 12.7242 0 0
          CHANNELS 3 Zrotation Xrotation Yrotation
          End Site
          {
            OFFSET 0 0 0
          }
        }
      }
    }
  }
  JOINT Spine
  {
    OFFSET 0.165834 0.87714 6.61349
    CHANNELS 3 Zrotation Xrotation Yrotation
    JOINT Spine1
    {
      OFFSET 7.38963 1.71661e-005 0
      CHANNELS 3 Zrotation Xrotation Yrotation
      JOINT Spine2
      {
        OFFSET 11.9445 1.14441e-005 0
        CHANNELS 3 Zrotation Xrotation Yrotation
        JOINT Spine3
        {
          OFFSET 14.7254 4.19617e-005 0
          CHANNELS 3 Zrotation Xrotation Yrotation
          JOINT Spine4
          {
            OFFSET 10.9679 0 0
            CHANNELS 3 Zrotation Xrotation Yrotation
            JOINT RightShoulder
            {
              OFFSET 2.46616 -1.6653 3.69651
              CHANNELS 3 Zrotation Xrotation Yrotation
              JOINT RightArm
              {
                OFFSET 13.0012 0 0
                CHANNELS 3 Zrotation Xrotation Yrotation
                JOINT RightForeArm
                {
                  OFFSET 28.7848 1.52588e-005 0
                  CHANNELS 3 Zrotation Xrotation Yrotation
                  JOINT RightHand
                  {
                    OFFSET 26.5688 1.52588e-005 0
                    CHANNELS 3 Zrotation Xrotation Yrotation
                    End Site
                    {
                      OFFSET 0 0 0
                    }
                  }
                }
              }
            }
            JOINT LeftShoulder
            {
              OFFSET 2.38034 -1.29275 -3.7523
              CHANNELS 3 Zrotation Xrotation Yrotation
              JOINT LeftArm
              {
                OFFSET 16.3182 6.10351e-005 0
                CHANNELS 3 Zrotation Xrotation Yrotation
                JOINT LeftForeArm
                {
                  OFFSET 27.0901 0 0
                  CHANNELS 3 Zrotation Xrotation Yrotation
                  JOINT LeftHand
                  {
                    OFFSET 24.5451 1.52588e-005 0
                    CHANNELS 3 Zrotation Xrotation Yrotation
                    End Site
                    {
                      OFFSET 0 0 0
                    }
                  }
                }
              }
            }
            JOINT Neck
            {
              OFFSET 5.0226 -0.0266342 0
              CHANNELS 3 Zrotation Xrotation Yrotation
              JOINT Head
              {
                OFFSET 6.69364 2.86102e-005 0
                CHANNELS 3 Zrotation Xrotation Yrotation
                End Site
                {
                  OFFSET 0 0 0
                }
              }
            }
          }
        }
      }
    }
  }
}
MOTION
Frames:	19
Frame Time:	0.0416667
252.488 74.7791 256.324 -50.5242 54.1981 -71.4744 -152.677 5.62846 145.357 -72.7706 -56.7552 -54.097 14.0987 -22.8165 -58.409 -47.4911 68.5956 -37.3814 -173.539 19.7535 126.441 122.415 75.9545 -179.443 93.9019 43.1775 119.768 10.5596 7.22526 -15.4648 2.06919 12.0288 -94.0766 2.83253 2.53176 -7.93498 -8.86078 2.18123 -8.03782 -31.2635 4.79437 -6.8158 -11.2509 4.79437 -6.81582 103.594 -13.9356 -78.1663 65.2321 -18.764 -19.1987 -170.804 17.2106 -63.098 29.9727 -5.77058 -25.8756 163.704 -34.3162 -47.4393 -7.03391 -0.920057 -168.661 -4.05511 -66.4331 -0.0380305 -14.241 -44.1142 146.809 23.4183 -2.79718 10.4242 32.1586 -9.33952 -9.48691 
252.99 74.7642 256.821 -49.9293 54.0694 -71.2274 -153.367 7.61097 146.369 -69.3937 -53.7689 -49.6783 16.343 -23.106 -58.5913 -33.4976 67.0999 -49.7665 -172.883 19.1903 126.815 123.793 75.6764 -179.856 91.0062 42.0015 121.713 10.5372 7.08673 -14.9795 2.1409 11.9772 -94.1915 2.93777 2.6263 -8.16361 -8.75679 2.26574 -8.27028 -31.1524 4.95281 -7.00625 -11.1398 4.95281 -7.00622 103.727 -13.6479 -77.771 65.3609 -18.7123 -19.2686 -169.417 17.8077 -63.5894 30.5014 -5.77499 -25.5283 163.763 -34.093 -47.5038 -7.00848 -1.48041 -168.428 -4.45881 -66.5588 -0.0382228 -13.891 -44.1039 147.621 23.3505 -2.90558 10.6188 32.3117 -9.49326 -9.42091 
254.46 74.7242 258.262 -48.1873 53.6862 -70.5171 -155.862 13.578 149.203 -60.5915 -42.4069 -38.2511 25.9717 -23.8531 -56.2898 1.5671 53.1834 -79.951 -170.941 17.5988 127.908 128.036 74.7724 179.046 83.1433 37.9553 126.631 10.2926 6.67975 -13.3787 2.34877 11.8176 -94.5254 3.26233 2.89827 -8.8311 -8.43614 2.50839 -8.94881 -30.8097 5.41138 -7.56367 -10.797 5.41136 -7.56367 104.098 -12.8024 -76.6332 65.7401 -18.5475 -19.4347 -165.2 19.5141 -65.154 32.0991 -5.73472 -24.3619 163.911 -33.4954 -47.684 -6.91824 -3.16088 -167.724 -5.62274 -65.6244 -0.0368421 -13.4722 -45.2143 149.303 23.1286 -3.23431 11.189 32.7544 -9.9484 -9.22466 
256.879 74.6738 260.6 -45.3447 53.0407 -69.3929 -161.274 23.6867 153.56 -49.2913 -10.7029 -26.7161 52.5981 -17.3107 -34.0694 31.7196 5.37424 -62.9754 -167.597 15.0926 129.673 135.672 72.8314 177.741 72.435 29.7439 132.067 9.32367 6.03476 -10.3743 2.68268 11.5299 -95.0635 3.84778 3.32792 -9.91783 -7.85773 2.89046 -10.0528 -30.1913 6.14488 -8.47607 -10.1787 6.1449 -8.47608 104.656 -11.3908 -74.8219 66.388 -18.2255 -19.5732 -157.77 22.1292 -68.1363 34.8255 -5.44186 -21.9167 164.082 -32.6894 -47.948 -6.71803 -6.0208 -166.475 -7.43512 -56.9762 -0.0279003 -16.361 -53.1969 148.094 22.6812 -3.8236 12.127 33.4744 -10.7179 -8.87821 
260.262 74.6333 263.813 -41.4652 52.1119 -67.9124 -165.221 33.2815 161.107 -29.7455 30.2742 -37.8685 57.8703 10.351 2.27747 80.0775 -19.0899 -7.62012 -162.126 11.3193 132.039 148.396 68.6721 177.285 61.8822 15.9455 134.849 7.03701 5.23328 -6.10583 3.13044 11.0768 -95.7893 4.77072 3.88692 -11.4063 -6.94576 3.38459 -11.5634 -29.2165 7.12031 -9.73663 -9.20383 7.12033 -9.73666 105.323 -9.34049 -72.4117 67.3708 -17.6439 -19.464 -146.553 25.1733 -73.0872 38.5587 -4.42497 -17.4053 164.181 -31.9286 -48.24 -6.31776 -10.1314 -164.481 -10.2043 -21.3846 -0.0163296 -76.9847 -75.9015 86.9404 21.863 -4.77274 13.4325 34.4839 -11.8473 -8.32887 
264.667 74.6754 267.867 -36.6716 50.8716 -66.1455 -168.93 42.1936 170.471 0.520163 45.1561 -63.1693 46.3721 22.592 21.7118 88.3649 -7.9235 24.9076 -151.445 3.87817 135.022 173.848 62.6002 179.203 54.8697 -4.56337 129.342 3.24338 4.40811 -1.48696 3.67278 10.4076 -96.6751 6.1329 4.53065 -13.2693 -5.59958 3.94768 -13.4513 -27.7768 8.28566 -11.3349 -7.76419 8.28565 -11.3349 105.986 -6.47397 -69.5024 68.8047 -16.627 -18.7844 -131.5 27.6409 -80.3379 42.5587 -2.02174 -10.1309 164.09 -31.5393 -48.4807 -5.55107 -15.351 -161.368 -14.1251 35.3412 -0.0256582 -134.236 -42.098 15.1655 20.4617 -6.24665 15.0956 35.8218 -13.4119 -7.49529 
270.127 74.9403 272.765 -31.1623 49.2901 -64.1817 177.462 53.6266 -177.461 19.2719 53.8298 -80.2045 48.0488 28.0676 28.6031 78.1603 -2.06028 39.1051 -148.662 6.08609 139.054 177.882 57.4017 179.636 43.4994 -13.793 124.606 -1.55017 3.76119 2.24103 4.2832 9.43301 -97.6804 8.11185 5.1931 -15.464 -3.64287 4.51602 -15.6704 -25.6864 9.5631 -13.2526 -5.67374 9.5631 -13.2526 106.441 -2.45956 -66.3275 70.9077 -14.7173 -16.8481 -114.254 28.303 -89.0584 45.384 1.99468 -0.330222 163.455 -32.1485 -48.6046 -4.17241 -20.7502 -156.351 -16.2997 54.0668 -0.0409437 -102.601 -33.1447 23.8621 17.9805 -8.60887 16.9747 37.6095 -15.5535 -6.21724 
276.594 75.613 278.474 -25.1749 47.3349 -62.1536 145.062 62.8179 -155.913 30.6499 68.9305 -92.6936 58.3902 32.0754 31.602 65.3089 -0.790746 47.4909 -148.55 10.8915 143.067 177.737 52.7448 179.562 32.0901 -19.0986 118.903 -6.41923 3.51603 4.35652 4.88217 8.23967 -98.7248 10.5302 5.73607 -17.845 -1.25306 4.95823 -18.0696 -23.1171 10.7759 -15.3939 -3.10442 10.7759 -15.3939 106.543 2.95276 -62.7942 73.5102 -12.4442 -14.3496 -97.8483 26.7245 -97.3955 45.9926 6.69171 10.4273 163.079 -32.8454 -48.5332 -2.37283 -25.12 -150.221 -16.9668 50.1115 0.131705 -84.027 -31.6128 31.8126 15.2341 -11.4634 19.2518 39.5698 -18.0866 -4.76221 
284.402 76.055 285.235 -18.8719 44.9615 -60.2704 105.529 61.865 -127.724 55.2334 75.6988 -118.65 64.3973 33.672 32.6458 55.037 -1.35758 52.5933 -149.355 16.0909 146.931 177.914 48.1606 179.525 21.7963 -22.4235 112.638 -10.6294 3.75032 4.97581 5.89203 6.60655 -99.6402 13.9121 7.00461 -20.2485 2.09879 6.12585 -20.5207 -19.6031 12.6826 -17.3528 0.409495 12.6826 -17.3528 106.907 9.04856 -55.2622 76.1197 -9.51095 -11.5304 -84.4597 23.9712 -103.731 44.8057 10.7296 20.2629 160.997 -30.0527 -51.11 -1.20495 -19.8611 -142.915 -15.5433 50.481 -2.4871 -78.6614 -29.732 32.8837 13.6371 -16.7395 20.6908 41.9613 -22.0006 -1.50666 
293.136 76.4763 292.794 -12.292 42.1235 -58.7955 77.9248 54.2795 -114.26 83.616 78.95 -146.503 68.696 31.6208 32.0356 48.3156 -2.2278 55.8358 -151.317 21.5456 150.457 178.033 43.789 179.487 12.7402 -23.9996 106.723 -13.889 4.35716 4.60455 6.63768 4.82216 -100.306 17.5988 7.73985 -22.2936 5.75567 6.77672 -22.5906 -15.7693 13.9706 -19.1314 4.24336 13.9706 -19.1314 105.836 16.4762 -49.085 78.9453 -5.98331 -7.8518 -74.2552 20.6113 -108.017 42.8422 13.5685 28.2144 159.761 -28.0583 -52.7362 -0.729655 -16.4667 -135.572 -10.9487 48.75 -8.3678 -77.6254 -28.2718 31.7181 11.5764 -21.5932 22.1866 44.3585 -25.5602 1.27352 
302.378 77.0217 300.894 -5.50559 38.8537 -57.9207 61.2976 47.3392 -115.433 138.521 82.7993 164.049 74.3404 25.7004 29.8074 44.3429 -2.91693 58.082 -154.36 26.9851 153.468 178.106 39.6921 179.451 4.95783 -24.35 101.538 -16.2229 5.15605 3.72935 7.56695 2.17691 -100.105 23.0135 9.03568 -23.0529 11.1638 8.0408 -23.401 -10.3724 15.4275 -19.4918 9.64022 15.4276 -19.4918 103.918 23.7282 -42.0001 81.2778 2.05025 0.478857 -66.4018 17.915 -110.405 40.9027 15.3616 34.1406 148.445 -26.6453 -59.8317 -3.31765 7.34568 -124.975 -11.8583 55.3865 -9.15674 -77.5035 -27.1027 30.3277 8.04774 -30.1486 17.6785 48.4906 -29.8114 6.85234 
311.841 77.4304 309.343 1.13587 35.4019 -57.58 52.1806 44.6225 -125.093 -143.254 77.1881 99.3184 81.3313 15.358 25.5019 42.0974 -3.37164 59.7675 -157.919 32.0398 155.806 178.152 36.0123 179.424 -1.68034 -23.8957 97.2668 -17.8059 5.99208 2.68144 8.70658 -0.817994 -98.96 29.5026 10.9464 -22.6889 17.672 9.96457 -23.1177 -4.08266 17.1533 -18.5594 15.93 17.1532 -18.5594 98.5609 34.956 -35.0061 81.6023 14.8249 15.3155 -60.0901 15.7988 -111.438 39.2533 16.43 38.3813 130.444 -24.371 -69.6703 -19.6446 29.7082 -96.834 -15.677 65.0995 -7.76397 -77.6378 -26.1448 29.0487 2.17559 -41.2047 9.64412 54.5953 -34.6524 15.0931 
321.17 77.5012 317.834 7.10992 32.1612 -57.4883 52.3942 44.5342 -133.835 -107.766 80.2166 87.391 79.2879 0.175733 18.7146 40.8488 -3.65234 61.0763 -161.253 36.4148 157.465 178.19 32.8795 179.413 -7.32611 -22.9767 93.904 -18.8341 6.77771 1.62979 9.00241 -2.38273 -98.3711 32.773 11.3672 -22.3949 20.9506 10.3969 -22.8426 -0.879674 17.4721 -18.1422 19.133 17.472 -18.1423 92.6768 44.4746 -32.2002 81.124 20.5041 23.4966 -55.357 12.7315 -111.851 37.8053 17.0052 41.414 128.411 -22.4212 -71.0453 -23.2601 31.5593 -87.247 -9.90428 63.8045 -14.8456 -78.4228 -25.3035 27.5612 0.298061 -44.6035 9.28727 57.0095 -36.8404 17.2106 
330.027 77.1673 326.027 12.1181 29.377 -57.4179 52.8641 41.7643 -139.202 -32.8471 84.7257 28.6095 72.2608 -10.3145 12.6542 40.1648 -3.8202 62.0933 -163.923 40.0032 158.567 178.229 30.3393 179.416 -12.1048 -21.8329 91.3542 -19.4616 7.47969 0.64034 9.19218 -3.53469 -97.7517 35.1874 11.7379 -21.8268 23.3777 10.7904 -22.2925 1.44563 17.6641 -17.4703 21.4583 17.6641 -17.4703 86.9136 52.0215 -29.7918 79.6419 24.7553 30.586 -51.6146 9.78605 -111.592 36.5986 17.264 43.5137 127.918 -20.6477 -71.6221 -24.8642 31.8213 -81.073 -4.7943 62.124 -21.2621 -79.068 -24.5856 26.3283 -1.07466 -46.6567 9.12298 58.6572 -38.3765 18.0784 
338.12 76.4963 333.613 16.0622 26.9614 -57.431 47.3149 34.8659 -142.291 -19.1664 80.7421 15.2159 69.291 -12.4065 10.2563 39.7901 -3.9199 62.8776 -165.815 42.6609 159.08 178.281 28.3532 179.436 -16.0939 -20.6492 89.4779 -19.7975 8.09401 -0.272153 9.35654 -4.3799 -97.1286 36.9763 12.1658 -21.133 25.1817 11.2462 -21.6198 3.12994 17.8738 -16.657 23.1426 17.8737 -16.657 81.0076 58.2715 -27.1278 77.55 27.9831 37.0887 -48.5736 7.01227 -110.841 35.567 17.3048 44.9261 127.578 -19.0418 -72.0864 -25.9135 31.9224 -75.8871 -0.57805 60.591 -26.8269 -79.4795 -23.978 25.3692 -2.12676 -48.0396 8.92742 59.8596 -39.6265 18.2166 
345.3 75.5429 340.334 19.3922 26.1604 -56.0996 43.7732 28.448 -145.118 -11.4397 76.8818 8.46408 66.1373 -13.967 7.01137 39.5726 -3.9814 63.4452 -167.428 45.7252 160.891 178.359 27.0005 179.448 -19.4371 -19.4147 88.1198 -19.9158 8.63138 -1.1187 9.50804 -5.17696 -96.674 38.6615 12.4779 -20.7257 26.8762 11.5747 -21.2276 4.74916 18.0544 -16.1605 24.7618 18.0544 -16.1605 74.9021 63.2613 -23.7615 75.3323 30.1593 42.6539 -46.0453 4.34889 -109.756 34.6347 17.1812 45.8367 126.903 -17.6002 -72.6553 -26.6704 32.1381 -71.1527 2.87453 59.4361 -31.7354 -79.6144 -23.4646 24.6724 -2.9043 -48.879 8.72318 60.6421 -40.7087 17.6391 
351.342 74.6368 346.024 22.333 24.8896 -57.8689 40.5614 23.7458 -145.936 -7.1342 72.0869 4.78466 63.4567 -14.8181 4.79186 39.4157 -4.02761 63.8912 -166.984 46.9052 158.88 178.436 26.236 179.522 -21.9981 -18.6565 87.0599 -19.872 9.11016 -1.92162 9.798 -5.49869 -96.037 39.4418 13.3126 -19.9518 27.6764 12.4405 -20.493 5.38109 18.6276 -15.1405 25.3938 18.6276 -15.1406 68.4396 67.0658 -19.3041 73.3689 31.3888 47.0569 -43.899 1.72314 -108.45 33.7349 16.9205 46.3733 125.39 -16.3329 -73.5289 -27.411 32.6985 -66.2844 5.71864 58.8442 -36.2148 -79.4439 -23.0298 24.2236 -3.49826 -49.305 8.48799 61.0436 -41.7406 16.3528 
356.188 73.7711 350.607 24.3481 23.4023 -59.2472 37.998 20.2837 -146.675 -5.01173 68.1223 3.09455 61.4119 -15.2863 3.11925 39.2677 -4.07066 64.1854 -166.797 47.2491 157.191 178.541 25.7727 179.594 -23.9174 -18.0581 86.3332 -19.6701 9.54421 -2.7099 9.97605 -5.67389 -95.5029 39.8831 13.933 -19.2065 28.1353 13.0912 -19.7781 5.69924 19.003 -14.2143 25.7119 19.003 -14.2143 61.5603 69.7289 -13.5491 71.9134 31.811 50.1637 -42.047 -0.935295 -106.997 32.8108 16.5335 46.6199 122.538 -15.266 -74.8824 -28.4197 33.7946 -60.7126 8.09825 58.9694 -40.4869 -78.9384 -22.6594 24.0144 -4.00301 -49.4292 8.18726 61.0892 -42.834 14.3232 
359.785 72.9994 354.002 25.829 22.1927 -60.1964 36.0903 17.628 -147.172 -3.85446 65.1154 2.2315 59.9961 -15.5342 1.95464 39.0899 -4.12054 64.3412 -166.948 47.1663 156.097 178.661 25.7439 179.661 -25.254 -17.6758 85.8532 -19.3276 9.95289 -3.51539 10.0846 -5.78896 -95.0661 40.1705 14.3867 -18.5525 28.4371 13.5716 -19.1469 5.88952 19.2447 -13.4297 25.9022 19.2447 -13.4297 54.5734 71.2439 -6.66921 71.121 31.5247 51.8702 -40.4317 -3.69305 -105.439 31.8103 16.0208 46.6314 117.815 -14.4435 -76.8883 -30.0562 35.5794 -53.8456 10.1354 59.9786 -44.7692 -78.0564 -22.3398 24.0475 -4.4935 -49.3452 7.7935 60.7678 -44.1039 11.446 
